<svg xmlns="http://www.w3.org/2000/svg" viewBox="0 0 63 65" x="0px" y="0px">
    <defs>
        <linearGradient id="rainbow" x1="0%" y1="0%" x2="100%" y2="100%">
            <stop offset="0%" style="stop-color:rgb(255,127,127);stop-opacity:1" />
            <stop offset="14%" style="stop-color:rgb(255,177,127);stop-opacity:1" />
            <stop offset="28%" style="stop-color:rgb(255,255,127);stop-opacity:1" />
            <stop offset="42%" style="stop-color:rgb(127,255,127);stop-opacity:1" />
            <stop offset="57%" style="stop-color:rgb(127,127,255);stop-opacity:1" />
            <stop offset="71%" style="stop-color:rgb(177,127,255);stop-opacity:1" />
            <stop offset="85%" style="stop-color:rgb(255,127,255);stop-opacity:1" />
            <stop offset="100%" style="stop-color:rgb(255,127,127);stop-opacity:1" />
        </linearGradient>
    </defs>
    <g>
        <circle cx="50%" cy="50%" r="30" fill="#0496da"  />
        <path fill="#6d2f06"
            d="M 12.8 17.4 A 2.724 2.724 0 0 1 12.106 15.074 A 4.111 4.111 0 0 1 14.372 12.929 A 1 1 0 0 0 15 12 A 8 8 0 0 1 31 12 A 1.008 1.008 0 0 0 31.625 12.928 A 4.112 4.112 0 0 1 33.894 15.074 A 2.724 2.724 0 0 1 33.2 17.4 A 1 1 0 0 0 33.24 18.649 C 33.263 18.677 35.298 21.163 33.556 25.876 L 32.618 24 H 26 V 22 H 28 A 3 3 0 0 0 31 19 V 14 A 1 1 0 0 0 30.275 13.038 C 30.212 13.021 24 11.2 24 7 A 1 1 0 0 0 22 7 C 22 11.18 15.787 13.021 15.724 13.039 A 1 1 0 0 0 15 14 V 19 A 3 3 0 0 0 18 22 H 20 V 24 H 13.36 L 12.409 26.062 C 10.509 21.262 12.633 18.791 12.729 18.685 A 1 1 0 0 0 12.8 17.4 Z M 8.908 38.419 L 14.64 26 H 15.751 V 28.783 L 11.105 39.553 C 11.044 39.675 10.882 40 10 40 A 1.258 1.258 0 0 1 8.9 39.456 A 1.026 1.026 0 0 1 8.908 38.419 Z" />

        <path fill="url(#rainbow)" d="M 28 31 A 2 2 0 0 1 24 31 C 24 30.531 24 30 26 30 S 28 30.531 28 31 Z" />

        <path fill="url(#rainbow)"
            d="M 20 30 C 22 30 22 30.531 22 31 A 2 2 0 0 1 18 31.034 V 30.845 C 18.021 30.421 18.215 30 20 30 Z" />

        <path fill="tan" d="M 34.844 32.929 C 34.013 33.24 33.244 33.563 32.557 33.882 L 30 28.764 V 26 H 31.382 Z" />

        <path fill="tan"
            d="M 20 35 A 3.975 3.975 0 0 0 23 33.618 A 3.92 3.92 0 0 0 28 34.442 V 36.6 L 25.73 38.853 L 18 36.279 V 34.303 A 3.956 3.956 0 0 0 20 35 Z" />

        <path fill="tan"
            d="M 21 20 H 18 A 1 1 0 0 1 17 19 V 14.72 C 18.395 14.208 21.423 12.864 23 10.387 C 24.577 12.864 27.605 14.208 29 14.72 V 19 A 1 1 0 0 1 28 20 H 25 A 1 1 0 0 0 24 21 V 25 A 1 1 0 0 0 25 26 H 28 V 28.277 A 6.586 6.586 0 0 0 26 28 A 4.95 4.95 0 0 0 23 28.758 A 4.954 4.954 0 0 0 20 28 A 6.581 6.581 0 0 0 18 28.275 V 26 H 21 A 1 1 0 0 0 22 25 V 21 A 1 1 0 0 0 21 20 Z" />

        <path fill="tan"
            d="M 14.64 26 H 16 V 28.783 L 11.105 39.553 C 11.044 39.675 10.882 40 10 40 A 1.258 1.258 0 0 1 8.9 39.456 A 1.026 1.026 0 0 1 8.908 38.419 Z" />

        <path fill="url(#rainbow)"
            d="M 45 54 A 6.006 6.006 0 0 1 39 60 H 38 V 58 A 6.006 6.006 0 0 1 44 52 H 45 Z M 54 58 V 60 H 53 A 6.006 6.006 0 0 1 47 54 V 52 H 48 A 6.006 6.006 0 0 1 54 58 Z M 45 33 C 47.43 33 49.1 33.96 49.973 35.853 C 51.603 39.396 50.059 45.653 46.532 50 H 45.357 C 46.042 47.632 46.949 43.568 45.728 41.873 A 2.076 2.076 0 0 0 44 41 C 42.559 41 41.54 42.322 40.249 44 C 37.792 47.184 34.078 52 25 52 C 19.9 52 16.6 50.2 15.463 46.794 A 9.324 9.324 0 0 1 17.221 38.128 L 26.27 41.145 L 29.644 37.771 A 29.533 29.533 0 0 1 45 33 Z Z Z Z Z Z Z Z Z" />
        <path
            d="M7.2,40.508A3.241,3.241,0,0,0,10,42a2.951,2.951,0,0,0,2.91-1.586l3.09-6.8v2.921c-2.272,2.084-3.786,6.832-2.434,10.889C14.384,49.882,16.958,54,25,54c10.062,0,14.3-5.5,16.833-8.782.8-1.035,1.7-2.209,2.236-2.209h.006c.545.33.283,3.465-.817,7.029A8.008,8.008,0,0,0,36,58v4h3a8,8,0,0,0,7-4.136A8,8,0,0,0,53,62h3V58a8.007,8.007,0,0,0-7.024-7.934C52.4,45.183,53.622,39,51.79,35.017A6.993,6.993,0,0,0,45,31a28.339,28.339,0,0,0-8.243,1.278l-2.035-4.07c2.613-5.3,1.279-8.819.482-10.2a4.291,4.291,0,0,0,.614-3.478,5.666,5.666,0,0,0-2.838-3.162,10,10,0,0,0-19.96,0,5.666,5.666,0,0,0-2.838,3.162,4.277,4.277,0,0,0,.6,3.451c-.878,1.4-2.35,4.97.525,10.474l-4.2,9.1A2.98,2.98,0,0,0,7.2,40.508ZM45,54a6.006,6.006,0,0,1-6,6H38V58a6.006,6.006,0,0,1,6-6h1Zm9,4v2H53a6.006,6.006,0,0,1-6-6V52h1A6.006,6.006,0,0,1,54,58ZM45,33c2.43,0,4.1.96,4.973,2.853,1.63,3.543.086,9.8-3.441,14.147H45.357c.685-2.368,1.592-6.432.371-8.127A2.076,2.076,0,0,0,44,41c-1.441,0-2.46,1.322-3.751,3C37.792,47.184,34.078,52,25,52c-5.1,0-8.4-1.8-9.537-5.206a9.324,9.324,0,0,1,1.758-8.666l9.049,3.017,3.374-3.374A29.533,29.533,0,0,1,45,33ZM21,20H18a1,1,0,0,1-1-1V14.72c1.395-.512,4.423-1.856,6-4.333,1.577,2.477,4.605,3.821,6,4.333V19a1,1,0,0,1-1,1H25a1,1,0,0,0-1,1v4a1,1,0,0,0,1,1h3v2.277A6.586,6.586,0,0,0,26,28a4.95,4.95,0,0,0-3,.758A4.954,4.954,0,0,0,20,28a6.581,6.581,0,0,0-2,.275V26h3a1,1,0,0,0,1-1V21A1,1,0,0,0,21,20Zm7,11a2,2,0,0,1-4,0c0-.469,0-1,2-1S28,30.531,28,31Zm-8-1c2,0,2,.531,2,1a2,2,0,0,1-4,.034v-.189C18.021,30.421,18.215,30,20,30Zm0,5a3.975,3.975,0,0,0,3-1.382,3.92,3.92,0,0,0,5,.824V36.6l-2.27,2.253L18,36.279V34.446A3.956,3.956,0,0,0,20,35Zm10,.2v-1.96l.767,1.534C30.489,34.919,30.232,35.062,30,35.2Zm4.844-2.271c-.831.311-1.6.634-2.287.953L30,28.764V26h1.382ZM12.8,17.4a2.724,2.724,0,0,1-.694-2.326,4.111,4.111,0,0,1,2.266-2.145A1,1,0,0,0,15,12a8,8,0,0,1,16,0,1.008,1.008,0,0,0,.625.928,4.112,4.112,0,0,1,2.269,2.146A2.724,2.724,0,0,1,33.2,17.4a1,1,0,0,0,.04,1.249c.023.028,2.058,2.514.316,7.227L32.618,24H26V22h2a3,3,0,0,0,3-3V14a1,1,0,0,0-.725-.962C30.212,13.021,24,11.2,24,7a1,1,0,0,0-2,0c0,4.18-6.213,6.021-6.276,6.039A1,1,0,0,0,15,14v5a3,3,0,0,0,3,3h2v2H13.36l-.951,2.062c-1.9-4.8.224-7.271.32-7.377A1,1,0,0,0,12.8,17.4ZM8.908,38.419,14.64,26H16v2.783l-4.895,10.77c-.061.122-.223.447-1.105.447a1.258,1.258,0,0,1-1.1-.544A1.026,1.026,0,0,1,8.908,38.419Z" />
        <path
            d="M19.97,47.161c-1.674-1.7-1-4.914-.993-4.946L18,42l-.976-.217c-.039.174-.919,4.289,1.511,6.772a6.438,6.438,0,0,0,4.809,1.734A14.55,14.55,0,0,0,26.2,49.98L25.8,48.02C23.039,48.573,21.075,48.284,19.97,47.161Z" />
        <path
            d="M46.153,37.078A2,2,0,0,1,47,39h2a3.987,3.987,0,0,0-1.769-3.606c-3.655-2.34-11.741,1.278-12.65,1.7l.838,1.816C38.472,37.5,44.086,35.756,46.153,37.078Z" />
        <rect x="27.882" y="47.5" width="2.236" height="2" transform="translate(-18.628 18.089) rotate(-26.565)" />

        <rect x="24" y="14" width="2" height="2" />
        <rect x="20" y="14" width="2" height="2" />
    </g>
</svg>