<svg id="scales" viewBox="0 0 800 800" preserveAspectRatio="xMidYMid slice"  xmlns="http://www.w3.org/2000/svg">
    <defs>
        <linearGradient id="rainbow" x1="0%" y1="0%" x2="100%" y2="100%">
            <stop offset="0%" style="stop-color:rgb(255,127,127);stop-opacity:1" />
            <stop offset="14%" style="stop-color:rgb(255,177,127);stop-opacity:1" />
            <stop offset="28%" style="stop-color:rgb(255,255,127);stop-opacity:1" />
            <stop offset="42%" style="stop-color:rgb(127,255,127);stop-opacity:1" />
            <stop offset="57%" style="stop-color:rgb(127,127,255);stop-opacity:1" />
            <stop offset="71%" style="stop-color:rgb(177,127,255);stop-opacity:1" />
            <stop offset="85%" style="stop-color:rgb(255,127,255);stop-opacity:1" />
            <stop offset="100%" style="stop-color:rgb(255,127,127);stop-opacity:1" />
        </linearGradient>
        <pattern id="pattern" patternUnits="userSpaceOnUse" width="6.7" height="8">
            <g transform="scale(0.5)">
                <path stroke="black"
                    d="M 13.2 6.7 C 9.7 6.6 6.9 3.7 6.9 0.2 C 6.9 0.2 6.9 0.1 6.8 0.1 C 6.8 0.1 6.7 -0 6.7 -0 C 6.7 -0 6.6 -0 6.6 0.1 C 6.6 0.1 6.5 0.2 6.5 0.2 C 6.5 3.7 3.7 6.6 0.2 6.7 C 0.1 6.7 0 6.8 0 6.9 C 0 7 0.1 7.1 0.2 7.1 C 3.9 7 6.9 4 6.9 0.2 C 6.9 0.2 6.9 0.1 6.8 0.1 C 6.8 0.1 6.7 0 6.7 0 C 6.7 0 6.6 0 6.6 0.1 C 6.6 0.1 6.5 0.2 6.5 0.2 C 6.5 3.9 9.5 6.9 13.2 7.1 C 13.3 7.1 13.4 7 13.4 6.9 C 13.4 6.8 13.3 6.7 13.2 6.7 L 13.2 6.7 Z" />
                <path stroke="black" transform="translate(6.7,8)"
                    d="M 13.2 6.7 C 9.7 6.6 6.9 3.7 6.9 0.2 C 6.9 0.2 6.9 0.1 6.8 0.1 C 6.8 0.1 6.7 -0 6.7 -0 C 6.7 -0 6.6 -0 6.6 0.1 C 6.6 0.1 6.5 0.2 6.5 0.2 C 6.5 3.7 3.7 6.6 0.2 6.7 C 0.1 6.7 0 6.8 0 6.9 C 0 7 0.1 7.1 0.2 7.1 C 3.9 7 6.9 4 6.9 0.2 C 6.9 0.2 6.9 0.1 6.8 0.1 C 6.8 0.1 6.7 0 6.7 0 C 6.7 0 6.6 0 6.6 0.1 C 6.6 0.1 6.5 0.2 6.5 0.2 C 6.5 3.9 9.5 6.9 13.2 7.1 C 13.3 7.1 13.4 7 13.4 6.9 C 13.4 6.8 13.3 6.7 13.2 6.7 L 13.2 6.7 Z" />
                <path stroke="black" transform="translate(-6.7,8)"
                    d="M 13.2 6.7 C 9.7 6.6 6.9 3.7 6.9 0.2 C 6.9 0.2 6.9 0.1 6.8 0.1 C 6.8 0.1 6.7 -0 6.7 -0 C 6.7 -0 6.6 -0 6.6 0.1 C 6.6 0.1 6.5 0.2 6.5 0.2 C 6.5 3.7 3.7 6.6 0.2 6.7 C 0.1 6.7 0 6.8 0 6.9 C 0 7 0.1 7.1 0.2 7.1 C 3.9 7 6.9 4 6.9 0.2 C 6.9 0.2 6.9 0.1 6.8 0.1 C 6.8 0.1 6.7 0 6.7 0 C 6.7 0 6.6 0 6.6 0.1 C 6.6 0.1 6.5 0.2 6.5 0.2 C 6.5 3.9 9.5 6.9 13.2 7.1 C 13.3 7.1 13.4 7 13.4 6.9 C 13.4 6.8 13.3 6.7 13.2 6.7 L 13.2 6.7 Z" />
            </g>
        </pattern>
    </defs>
    <rect width="100%" height="100%" fill="url(#rainbow)"/>
    <rect width="100%" height="100%" fill="url(#pattern)" />
</svg>