<svg viewBox="0 0 512 640">
  <path d="M 176 480 C 273.047 480 352 411.813 352 328 C 352 300.107 343.246 273.949 328 251.455 V 184 A 104.124 104.124 0 0 0 295.9 108.872 A 56.118 56.118 0 0 0 264 61.4 V 40 A 40.045 40.045 0 0 0 224 0 H 96 A 40.045 40.045 0 0 0 56 40 V 103.458 A 32.167 32.167 0 0 0 56.415 108.567 A 103.951 103.951 0 0 0 24 184 V 251.455 C 8.754 273.949 0 300.107 0 328 C 0 411.813 78.953 480 176 480 Z M 16 328 C 16 286.03 38.487 248.443 73.753 223.477 A 70.147 70.147 0 0 0 92.484 237.865 C 70.706 262.735 48 300.912 48 352 A 202.21 202.21 0 0 0 60.093 421.658 C 32.784 397.252 16 364.261 16 328 Z M 265.98 440.4 A 178.35 178.35 0 0 1 184 463.83 V 447.507 C 186.641 447.242 189.817 446.837 193.386 446.207 A 8 8 0 0 0 200 438.33 V 416 H 216 V 427.66 A 8 8 0 0 0 227.743 434.73 C 253.383 421.154 268.67 398.385 271.951 368.884 A 8 8 0 0 0 264 360 H 184 V 255.856 C 206.519 255.099 227.287 251.163 244.246 244.804 C 265.016 267.334 288 303.273 288 352 A 184.346 184.346 0 0 1 265.98 440.4 Z M 86.02 440.4 A 184.346 184.346 0 0 1 64 352 C 64 303.273 86.984 267.334 107.754 244.8 C 124.712 251.159 145.481 255.1 168 255.852 V 360 H 160 A 8 8 0 0 0 152 368 V 384 H 136 V 368 A 8 8 0 0 0 128 360 H 88 A 8 8 0 0 0 80.049 368.883 C 83.657 401.354 101.569 425.376 131.849 438.353 A 125.539 125.539 0 0 0 168 447.511 V 463.83 A 178.35 178.35 0 0 1 86.02 440.4 Z M 224 400 H 192 A 8 8 0 0 0 184 408 V 431.416 C 179.107 431.98 176.033 432 176 432 A 108 108 0 0 1 138.151 423.647 C 115.988 414.147 102.316 398.147 97.412 376 H 120 V 392 A 8 8 0 0 0 128 400 H 160 A 8 8 0 0 0 168 392 V 376 H 254.584 C 251.2 391.241 243.637 403.6 232 412.927 V 408 A 8 8 0 0 0 224 400 Z M 176 240 C 133.278 240 101.268 228.1 87.529 214.74 C 112.887 200.382 143.312 192 176 192 S 239.113 200.382 264.471 214.74 C 250.732 228.1 218.721 240 176 240 Z M 291.907 421.658 A 202.21 202.21 0 0 0 304 352 C 304 300.912 281.294 262.735 259.516 237.865 A 70.147 70.147 0 0 0 278.247 223.477 C 313.513 248.443 336 286.03 336 328 C 336 364.261 319.216 397.252 291.907 421.658 Z M 254.155 126.837 A 32.973 32.973 0 0 0 264 103.458 V 80 A 40.09 40.09 0 0 1 280 112 V 128 A 24.027 24.027 0 0 1 256 152 H 224 A 24.035 24.035 0 0 1 200.264 131.547 A 32.223 32.223 0 0 0 208.031 125.109 A 31.95 31.95 0 0 0 231.4 135.994 A 31.468 31.468 0 0 0 254.155 126.837 Z M 72 40 A 24.027 24.027 0 0 1 96 16 H 224 A 24.027 24.027 0 0 1 248 40 V 103.458 A 16.876 16.876 0 0 1 242.946 115.419 A 15.6 15.6 0 0 1 231.7 120 A 16.075 16.075 0 0 1 216 104 V 72 A 8 8 0 0 0 200 72 V 104 A 16 16 0 0 1 168 104 V 72 A 8 8 0 0 0 152 72 V 104 A 16 16 0 0 1 120 104 V 72 A 8 8 0 0 0 104 72 V 104 A 16.075 16.075 0 0 1 88.3 120 A 15.633 15.633 0 0 1 77.05 115.422 A 16.876 16.876 0 0 1 72 103.458 Z M 40 184 A 87.949 87.949 0 0 1 63.446 124.2 A 32.826 32.826 0 0 0 65.846 126.837 A 31.414 31.414 0 0 0 88.601 135.994 A 31.95 31.95 0 0 0 111.97 125.109 A 31.957 31.957 0 0 0 160.001 125.144 A 31.933 31.933 0 0 0 184 136 C 184.269 136 184.534 135.985 184.8 135.978 A 40.067 40.067 0 0 0 224 168 H 256 A 40.05 40.05 0 0 0 295.679 132.976 A 88.08 88.08 0 0 1 312 184 V 231.627 C 279.7 197.686 230.726 176 176 176 S 72.305 197.686 40 231.627 Z"/>
  <path d="M 96 328 H 144 A 8 8 0 0 0 150.86 315.884 L 126.86 275.884 A 8 8 0 0 0 113.14 275.884 L 89.14 315.884 A 8 8 0 0 0 96 328 Z M 120 295.549 L 129.871 312 H 110.129 Z M 238.86 275.884 A 8 8 0 0 0 225.14 275.884 L 201.14 315.884 A 8 8 0 0 0 208 328 H 256 A 8 8 0 0 0 262.86 315.884 Z M 222.129 312 L 232 295.549 L 241.871 312 Z"/>
</svg>
