<svg viewBox="0 0 100 125">
  <path d="M72.354 54.265c-2.654-2.219-9.989-5.403-15.575-6.785-.023-1.626.198-3.527.449-5.599.389-3.213.829-6.854.481-10.602a4.048 4.048 0 0 1 .143-1.565c.351-1.244.715-2.441 1.079-3.64.815-2.681 1.659-5.453 2.33-8.733a5.871 5.871 0 0 0 .062-2.085c-.098-.683-.191-1.362-.284-2.04-.459-3.333-.893-6.482-1.708-9.589a.5.5 0 0 0-.451-.372c-.034-.004-.067.003-.101.007l-1.022-.701c-.384-.261-.767-.521-1.149-.785a1.155 1.155 0 0 0-.936-.182l-.09.021-2.546-.871c-.256-.084-.522.083-.673.458-.09.226-.204.64.041.872.162.155.341.278.524.392a3.992 3.992 0 0 0-.523.316.468.468 0 0 0-.16.531c.097.29.487.564.813.564.157-.003.387-.031.644-.064.253-.032.534-.068.781-.081-.076.033-.152.064-.22.092-.656.269-1.336.546-1.418 1.095a.396.396 0 0 0 .001.119c.043.247.229.542.873.542.288 0 .646-.052 1.026-.105.711-.104 1.473-.163 1.899-.039.682 2.86.816 7.318.713 10.556-.011.325-.044.6-.112.917-1.184 5.469-2.343 7.433-3.947 10.15l-.562.955c-.05.085-.25.154-.307.151-.095-.052-.313-.398-.29-1.283.1.015.2.028.291.028.083 0 .161-.007.234-.021.352-.066 1.004-.19 1.216-.983l.146-.571.587-1.384a.508.508 0 0 0 .036-.139l.173-1.557a1.27 1.27 0 0 0-.08-.617c-.13-.334-.048-.743.038-1.176.051-.255.1-.518.108-.777 0-.007.004-.013.004-.02l-.001-.016.002-.021c0-.008-.004-.014-.004-.021-.036-2.882-2.508-4.814-6.178-4.814-1.433 0-3.37.563-4.118 2.153-.699 1.481-.286 3.25 1.021 4.481-.104 1.147.449 2.637 1.632 3.526-.103 1.606-.301 2.626-.619 3.183a1.897 1.897 0 0 1-.088.139.488.488 0 0 0-.339-.03c-.009-.008-.012-.007-.021-.016l-.103-.097c-1.142-1.078-2.221-2.096-2.938-3.517l-2.063-5.964a4.872 4.872 0 0 1-.262-2.115c.069-.789.125-1.581.181-2.36.217-3.066.423-5.962 1.35-7.527.011-.019.007-.041.016-.061.703-.362 1.331-.478 1.986-.583.572-.093 1.164-.188 1.78-.47.227-.102.344-.351.305-.65-.037-.287-.213-.601-.522-.652a2.496 2.496 0 0 0-.342-.029c.268-.03.521-.062.721-.106.339-.075.659-.429.672-.741a.463.463 0 0 0-.331-.465 7.753 7.753 0 0 0-.886-.198c.487-.404.767-.833.729-1.176-.049-.42-.6-.721-1.663-.115-.634.361-1.074.659-1.57 1.012a1.148 1.148 0 0 0-.905.295c-.434.391-.871.778-1.31 1.167-.363.321-.725.644-1.084.966-.033-.001-.063-.018-.098-.012a.5.5 0 0 0-.4.37c-.178.698-.358 1.392-.539 2.083-.783 3.004-1.594 6.109-2.02 9.437a5.86 5.86 0 0 0 .123 2.211c1.372 5.669 3.346 9.887 5.77 14.782 1.543 3.719 3.112 7.517 2.989 10.42-2.002-.883-4.117-1.001-6.53-1.127-2.851-.15-6.081-.32-10.05-1.805a.506.506 0 0 0-.647.302c-2.209 6.234-.991 12.481 3.427 17.59 3.587 4.148 8.979 7.124 14.676 8.438.354.737.668 1.434.951 2.104a26.694 26.694 0 0 1-1.264 4.529c-3.293 3.373-4.224 8.372-4.649 12.919-.672-.045-1.333.021-1.862.249-.339.146-.969.419-1.037 1.136-.085.897-.065 1.866-.046 2.802.007.353.014.695.015 1.021-.257 1.109-.796 1.734-1.538 2.595l-.3.351c-.362.364-.46.867-.261 1.348.245.59.883 1.003 1.55 1.003.306 0 .602-.082.928-.274 4.049-3.035 7.876-11.362 10.968-18.845.843 2.772 1.852 5.363 2.898 8.038.438 1.118.88 2.247 1.314 3.404.211.56.309 1.057.324 1.662.007.281.011.558.014.832.006.561.012 1.112.051 1.674a7.37 7.37 0 0 0 .729 2.775l.235.5c.228.483.454.967.689 1.426a.5.5 0 0 0 .218.218 2.48 2.48 0 0 0 1.142.281c.562 0 1.11-.198 1.588-.573a.497.497 0 0 0 .189-.353c.128-1.563-.062-3.318-.244-5.015a72.743 72.743 0 0 1-.237-2.422c.015-.14.048-.281.08-.43.106-.481.238-1.08-.021-1.801-.311-.866-.96-1.256-1.533-1.6-.208-.125-.407-.244-.588-.383-.396-4.249-.866-9.031-2.911-13.182-.02-.526-.04-.969-.059-1.377l-.037-.848a5.965 5.965 0 0 0-.278-1.581 94.08 94.08 0 0 1 .625-1.459 23.503 23.503 0 0 0 3.489-.42c7.176-1.423 12.407-6.051 14.731-13.029a.492.492 0 0 0-.15-.542zM53.019 1.616a.915.915 0 0 1 .021-.078l1.207.412c-.157.045-.314.089-.468.142-.277-.15-.542-.294-.76-.476zm1.622 3.115c-.285.041-.557.08-.774.094.217-.117.507-.235.683-.308.616-.252 1.149-.47 1.132-.939a.36.36 0 0 0-.017-.096c-.152-.504-.801-.504-1.014-.504-.33 0-.709.049-1.043.092l-.322.04c.659-.353 1.475-.538 2.329-.733l.226-.051a.395.395 0 0 1 .341.066c.384.266.769.527 1.152.789l.949.649c-.17.46-.265.676-1.287.938l-.009.005a2.4 2.4 0 0 0-.945-.178c-.46.001-.961.073-1.401.136zm-1.037 23.784.558-.949c1.651-2.798 2.846-4.819 4.063-10.447.082-.379.123-.707.136-1.096.101-3.155-.021-7.463-.647-10.42.405-.053.728-.192.971-.408.602 2.632.975 5.327 1.364 8.158.094.679.188 1.36.285 2.045a4.82 4.82 0 0 1-.052 1.743c-.66 3.234-1.497 5.984-2.307 8.643-.366 1.204-.732 2.408-1.085 3.66a5.08 5.08 0 0 0-.176 1.929c.21 2.265.122 4.507-.067 6.64-1.378-.325-2.68-.826-3.939-1.687 1.212-1.711 1.39-4.208.53-7.438.144-.1.276-.219.366-.373zm.291-8.869a3.898 3.898 0 0 1-.092.62c-.105.529-.226 1.129.01 1.733a.264.264 0 0 1 .019.144l-.165 1.486-.58 1.382-.17.637c-.036.135-.049.186-.434.259-.303.056-1.302-.296-2.428-.958a1.042 1.042 0 0 1-.471-.561c-.027-.069-.044-.152-.063-.235-.074-.318-.199-.853-.734-.951a.49.49 0 0 0-.286.044c-.613-.188-.9-.604-.955-.778-.094-.302-.012-.608-.014-.647.001 0 .086.024.242.232.031.043.07.076.113.101.262.223.671.349.975.349.085 0 .16-.01.222-.028a.455.455 0 0 0 .337-.434c-.006-3.197.979-3.561 2.021-3.944.498-.184 1.045-.386 1.477-.875.591.588.969 1.383.976 2.424zm-8.394-2.273c.412-.876 1.376-1.327 2.313-1.497-1.335 1.22-2.049 2.675-2.073 4.152-.539-.832-.643-1.799-.24-2.655zm1.996 11.262c.414-.722.641-1.838.755-3.695a.496.496 0 0 0-.188-.626c-1.026-.626-1.466-1.825-1.456-2.645a.368.368 0 0 0 .065-.338c-.022-.069-.028-.141-.047-.211-.006-.024-.007-.047-.016-.07-.45-1.846.445-3.782 2.467-5.233l.013-.014c1.14.051 2.327.338 3.239.944-.3.325-.688.474-1.147.644-1.147.423-2.442.899-2.509 4.337-.133-.034-.278-.095-.32-.15l-.008-.008c-.495-.635-.934-.511-1.101-.427-.479.246-.588.995-.415 1.548.15.481.668 1.023 1.446 1.265.051.081.121.15.21.191.021.063.045.166.061.233.03.128.062.255.103.361.173.462.477.821.9 1.069.279.165.934.531 1.614.796-.128 2.104.804 2.471 1.003 2.52.031.008.069.002.103.007.779 2.916.658 5.129-.36 6.592-1.636-1.348-3.213-3.402-4.811-6.588.175-.152.306-.341.399-.502zm-2.313-26.58c.141-.08.257-.138.351-.178-.178.193-.489.438-.911.667l-.209-.02c.232-.15.478-.303.769-.469zm-3.66 2.383c.44-.39.88-.779 1.315-1.172a.398.398 0 0 1 .334-.108c.297.035.595.062.894.088.557.05 1.092.099 1.61.192l-.326.035c-.779.084-1.516.162-1.819.585a.694.694 0 0 0-.112.572c.087.396.563.396.721.396.171 0 .387-.017.615-.034.275-.021.575-.041.822-.037-.443.165-.884.236-1.347.312-.656.105-1.396.238-2.211.657-.059-.013-.115-.032-.177-.022-.429.062-.804.053-1.305-.587.329-.294.657-.586.986-.877zm11.589 64.008-.079-.152.143.002-.064.15zM38.581 96.479a.75.75 0 0 1-.378.107c-.303 0-.548-.199-.626-.387-.055-.132-.011-.201.073-.287l.32-.374c.785-.91 1.463-1.696 1.77-3.085a.48.48 0 0 0 .012-.107c0-.349-.008-.718-.016-1.097-.019-.907-.037-1.847.043-2.687.008-.081.082-.158.438-.313.286-.123.621-.184 1.023-.184.291 0 .575.029.842.059a.49.49 0 0 0 .371-.11.505.505 0 0 0 .181-.344c.393-4.533 1.232-9.609 4.483-12.879.05-.05.089-.11.113-.176.431-1.144.75-2.249 1.017-3.343.144.396.277.784.399 1.167a48.155 48.155 0 0 0 1.008 4.477c-3.123 7.652-7.057 16.548-11.073 19.563zm17.39-9.478a.503.503 0 0 0 .165.327c.286.255.591.438.886.614.512.308.916.55 1.105 1.08.162.449.076.837-.015 1.247a4.23 4.23 0 0 0-.1.624c.054.834.146 1.692.239 2.55.168 1.565.343 3.181.258 4.596a1.489 1.489 0 0 1-.797.238c-.185 0-.368-.037-.547-.108-.203-.403-.399-.822-.597-1.241l-.237-.504a6.432 6.432 0 0 1-.634-2.415c-.038-.543-.043-1.075-.049-1.616-.004-.279-.007-.561-.014-.848a5.833 5.833 0 0 0-.389-1.988c-.436-1.161-.879-2.294-1.318-3.417-1.744-4.452-3.391-8.658-4.313-13.936-.443-1.404-.999-2.816-1.727-4.385 1.335.247 2.659.396 4.014.452.057.11.103.202.148.293.083.164.164.327.301.586.376.71.558 1.384.589 2.185l.038.854c.02.434.042.903.062 1.475a.511.511 0 0 0 .053.206c2.037 4.072 2.484 8.885 2.879 13.131zm1.611-20.146c-8.695 1.724-19.147-1.816-24.856-8.416-4.061-4.695-5.26-10.403-3.402-16.125 3.89 1.376 7.056 1.542 9.862 1.689 2.43.127 4.541.25 6.461 1.178a4.423 4.423 0 0 1-.585 1.447c-2.768-1.997-4.857-1.304-7.061-.568-2.097.701-4.266 1.429-7.506.036a.502.502 0 0 0-.394.92c1.494.641 2.792.872 3.954.872 1.632 0 2.997-.456 4.264-.88 2.098-.7 3.777-1.261 6.103.387-.096.092-.182.189-.289.274a.498.498 0 0 0 .311.891.499.499 0 0 0 .311-.108c.299-.236.548-.495.774-.765.014-.013.029-.02.041-.034.015-.019.02-.04.031-.06.614-.766.967-1.651 1.108-2.633l.004-.021c.458-3.239-1.295-7.48-3.022-11.641-2.41-4.869-4.36-9.036-5.707-14.604a4.85 4.85 0 0 1-.104-1.851c.417-3.263 1.184-6.2 1.995-9.311.101-.384.2-.768.3-1.153.326.287.645.435.95.5-.738 1.804-.926 4.447-1.123 7.225-.055.773-.11 1.56-.179 2.343-.079.899.018 1.68.313 2.53L42.224 25c.822 1.64 2.017 2.767 3.172 3.856l.103.098c.194.183.389.305.581.376 3.519 7.128 7.104 8.921 10.47 9.685-.098.94-.206 1.859-.313 2.743-.462 3.813-.857 7.106.244 9.343l.002.009.004.006.008.02c.006.011.018.016.023.025a.478.478 0 0 0 .141.152.5.5 0 0 0 .282.098h.002a.495.495 0 0 0 .198-.041c2.567-1.106 4.691.441 6.396 1.684.332.242.64.466.921.648a.499.499 0 0 0 .691-.149.501.501 0 0 0-.148-.691c-.268-.173-.56-.387-.875-.616-1.617-1.18-4.017-2.926-6.896-1.973a6.782 6.782 0 0 1-.39-1.751c5.244 1.341 11.899 4.204 14.61 6.293-2.262 6.444-7.174 10.712-13.868 12.04z"/>
  <path d="M56.181 51.382c-1.306-.277-2.436-.036-3.303.691-1.168-1.423-2.396-1.76-3.155-1.808-1.044-.067-1.992.337-2.699.951-.054-.69-.276-1.284-.808-1.695-1.239-.961-3.612.177-6.358 1.496-2.069.993-4.416 2.12-6.201 2.25a.502.502 0 0 0-.463.535.513.513 0 0 0 .535.463c1.975-.145 4.307-1.265 6.562-2.347 2.138-1.026 4.563-2.188 5.313-1.606.802.62.358 2.407-.069 4.135-.355 1.435-.691 2.789-.445 3.82a.501.501 0 0 0 .602.37.5.5 0 0 0 .37-.603c-.189-.795.132-2.092.443-3.347.11-.444.218-.891.311-1.329l.005-.014c.186-1.058 1.401-2.178 2.841-2.083 1.098.069 4.723 1.153 5.254 12.2a.5.5 0 0 0 .499.476l.024-.001a.5.5 0 0 0 .475-.523c-.26-5.415-1.269-8.619-2.438-10.507.642-.574 1.454-.771 2.499-.548 3.081.655 6.646 4.457 7.164 6.121a.5.5 0 1 0 .955-.296c-.661-2.115-4.549-6.086-7.913-6.801z"/>
</svg>
