<svg x="0px" y="0px" viewBox="0 0 100 125" style="enable-background:new 0 0 100 100;" xml:space="preserve">
    <path
        d="M49.4,52.4c-3.5-0.1-6.3-3-6.3-6.5c0,0,0-0.1-0.1-0.1c0,0-0.1-0.1-0.1-0.1c0,0-0.1,0-0.1,0.1c0,0-0.1,0.1-0.1,0.1  c0,3.5-2.8,6.4-6.3,6.5c-0.1,0-0.2,0.1-0.2,0.2c0,0.1,0.1,0.2,0.2,0.2c3.7-0.1,6.7-3.1,6.7-6.9c0,0,0-0.1-0.1-0.1  c0,0-0.1-0.1-0.1-0.1c0,0-0.1,0-0.1,0.1c0,0-0.1,0.1-0.1,0.1c0,3.7,3,6.7,6.7,6.9c0.1,0,0.2-0.1,0.2-0.2  C49.6,52.5,49.5,52.4,49.4,52.4L49.4,52.4z" />
    <path
        d="M55.9,59.1c-3.5-0.1-6.3-3-6.3-6.5c0,0,0-0.1-0.1-0.1c0,0-0.1-0.1-0.1-0.1c0,0-0.1,0-0.1,0.1c0,0-0.1,0.1-0.1,0.1  c0,3.5-2.8,6.4-6.3,6.5c-0.1,0-0.2,0.1-0.2,0.2c0,0.1,0.1,0.2,0.2,0.2c3.7-0.1,6.7-3.1,6.7-6.9c0,0,0-0.1-0.1-0.1  c0,0-0.1-0.1-0.1-0.1c0,0-0.1,0-0.1,0.1c0,0-0.1,0.1-0.1,0.1c0,3.7,3,6.7,6.7,6.9c0.1,0,0.2-0.1,0.2-0.2  C56.1,59.2,56,59.1,55.9,59.1L55.9,59.1z" />
    <path
        d="M42.9,59.1c-3.5-0.1-6.3-3-6.3-6.5c0,0,0-0.1-0.1-0.1c0,0-0.1-0.1-0.1-0.1c0,0-0.1,0-0.1,0.1c0,0-0.1,0.1-0.1,0.1  c0,3.5-2.8,6.4-6.3,6.5c-0.1,0-0.2,0.1-0.2,0.2c0,0.1,0.1,0.2,0.2,0.2c3.7-0.1,6.7-3.1,6.7-6.9c0,0,0-0.1-0.1-0.1  c0,0-0.1-0.1-0.1-0.1c0,0-0.1,0-0.1,0.1c0,0-0.1,0.1-0.1,0.1c0,3.7,3,6.7,6.7,6.9c0.1,0,0.2-0.1,0.2-0.2C43,59.2,43,59.1,42.9,59.1  L42.9,59.1z" />
    <path
        d="M62.4,52.4c-3.5-0.1-6.3-3-6.3-6.5c0,0,0-0.1-0.1-0.1c0,0-0.1-0.1-0.1-0.1c0,0-0.1,0-0.1,0.1c0,0-0.1,0.1-0.1,0.1  c0,3.5-2.8,6.4-6.3,6.5c-0.1,0-0.2,0.1-0.2,0.2c0,0.1,0.1,0.2,0.2,0.2c3.7-0.1,6.7-3.1,6.7-6.9c0,0,0-0.1-0.1-0.1  c0,0-0.1-0.1-0.1-0.1c0,0-0.1,0-0.1,0.1c0,0-0.1,0.1-0.1,0.1c0,3.7,3,6.7,6.7,6.9c0.1,0,0.2-0.1,0.2-0.2  C62.6,52.5,62.5,52.4,62.4,52.4L62.4,52.4z" />
    <path
        d="M68.9,59.1c-3.5-0.1-6.3-3-6.3-6.5c0,0,0-0.1-0.1-0.1c0,0-0.1-0.1-0.1-0.1c0,0-0.1,0-0.1,0.1c0,0-0.1,0.1-0.1,0.1  c0,3.5-2.8,6.4-6.3,6.5c-0.1,0-0.2,0.1-0.2,0.2c0,0.1,0.1,0.2,0.2,0.2c3.7-0.1,6.7-3.1,6.7-6.9c0,0,0-0.1-0.1-0.1  c0,0-0.1-0.1-0.1-0.1c0,0-0.1,0-0.1,0.1c0,0-0.1,0.1-0.1,0.1c0,3.7,3,6.7,6.7,6.9c0.1,0,0.2-0.1,0.2-0.2  C69.1,59.2,69,59.1,68.9,59.1L68.9,59.1z" />
    <path
        d="M55.9,45.7c-3.5-0.1-6.3-3-6.3-6.5c0,0,0-0.1-0.1-0.1c0,0-0.1-0.1-0.1-0.1c0,0-0.1,0-0.1,0.1c0,0-0.1,0.1-0.1,0.1  c0,3.5-2.8,6.4-6.3,6.5c-0.1,0-0.2,0.1-0.2,0.2c0,0.1,0.1,0.2,0.2,0.2c3.7-0.1,6.7-3.1,6.7-6.9c0,0,0-0.1-0.1-0.1  c0,0-0.1-0.1-0.1-0.1c0,0-0.1,0-0.1,0.1c0,0-0.1,0.1-0.1,0.1c0,3.7,3,6.7,6.7,6.9c0.1,0,0.2-0.1,0.2-0.2  C56.1,45.8,56,45.7,55.9,45.7L55.9,45.7z" />
    <path
        d="M68.9,45.6c-3.4-0.1-6.2-2.9-6.2-6.3c0-0.1,0-0.2-0.1-0.2s-0.2-0.1-0.2-0.1c-0.1,0-0.2,0-0.2,0.1c-0.1,0.1-0.1,0.2-0.1,0.2  c0,3.4-2.7,6.2-6.2,6.3c-0.2,0-0.3,0.2-0.3,0.4c0,0.2,0.2,0.3,0.4,0.3c3.8-0.1,6.8-3.2,6.8-7c0-0.1,0-0.2-0.1-0.2s-0.2-0.1-0.2-0.1  c-0.1,0-0.2,0-0.2,0.1c-0.1,0.1-0.1,0.2-0.1,0.2c0,3.8,3,6.9,6.8,7c0.2,0,0.4-0.1,0.4-0.3C69.2,45.7,69.1,45.6,68.9,45.6L68.9,45.6z  " />
    <path
        d="M62.4,38.9c-3.4-0.1-6.2-2.9-6.2-6.3c0-0.1,0-0.2-0.1-0.2c-0.1-0.1-0.2-0.1-0.2-0.1c-0.1,0-0.2,0-0.2,0.1s-0.1,0.2-0.1,0.2  c0,3.4-2.7,6.2-6.2,6.3c-0.2,0-0.3,0.2-0.3,0.4c0,0.2,0.2,0.3,0.4,0.3c3.8-0.1,6.8-3.2,6.8-7c0-0.1,0-0.2-0.1-0.2  c-0.1-0.1-0.2-0.1-0.2-0.1c-0.1,0-0.2,0-0.2,0.1s-0.1,0.2-0.1,0.2c0,3.8,3,6.9,6.8,7c0.2,0,0.4-0.1,0.4-0.3  C62.7,39.1,62.6,38.9,62.4,38.9L62.4,38.9z" />
    <path
        d="M49.4,38.9c-3.4-0.1-6.2-2.9-6.2-6.3c0-0.1,0-0.2-0.1-0.2c-0.1-0.1-0.2-0.1-0.2-0.1c-0.1,0-0.2,0-0.2,0.1s-0.1,0.2-0.1,0.2  c0,3.4-2.7,6.2-6.2,6.3c-0.2,0-0.3,0.2-0.3,0.4c0,0.2,0.2,0.3,0.4,0.3c3.8-0.1,6.8-3.2,6.8-7c0-0.1,0-0.2-0.1-0.2  c-0.1-0.1-0.2-0.1-0.2-0.1c-0.1,0-0.2,0-0.2,0.1s-0.1,0.2-0.1,0.2c0,3.8,3,6.9,6.8,7c0.2,0,0.4-0.1,0.4-0.3  C49.7,39.1,49.6,38.9,49.4,38.9L49.4,38.9z" />
    <path
        d="M42.9,45.6c-3.4-0.1-6.2-2.9-6.2-6.3c0-0.1,0-0.2-0.1-0.2c-0.1-0.1-0.2-0.1-0.2-0.1c-0.1,0-0.2,0-0.2,0.1  c-0.1,0.1-0.1,0.2-0.1,0.2c0,3.4-2.7,6.2-6.2,6.3c-0.2,0-0.3,0.2-0.3,0.4c0,0.2,0.2,0.3,0.4,0.3c3.8-0.1,6.8-3.2,6.8-7  c0-0.1,0-0.2-0.1-0.2c-0.1-0.1-0.2-0.1-0.2-0.1c-0.1,0-0.2,0-0.2,0.1c-0.1,0.1-0.1,0.2-0.1,0.2c0,3.8,3,6.9,6.8,7  c0.2,0,0.4-0.1,0.4-0.3C43.2,45.7,43.1,45.6,42.9,45.6L42.9,45.6z" />
    <path
        d="M55.9,32.1c-3.4-0.1-6.2-2.9-6.2-6.3c0-0.1,0-0.2-0.1-0.2c-0.1-0.1-0.2-0.1-0.2-0.1c-0.1,0-0.2,0-0.2,0.1  c-0.1,0.1-0.1,0.2-0.1,0.2c0,3.4-2.7,6.2-6.2,6.3c-0.2,0-0.3,0.2-0.3,0.4c0,0.2,0.2,0.3,0.4,0.3c3.8-0.1,6.8-3.2,6.8-7  c0-0.1,0-0.2-0.1-0.2c-0.1-0.1-0.2-0.1-0.2-0.1c-0.1,0-0.2,0-0.2,0.1c-0.1,0.1-0.1,0.2-0.1,0.2c0,3.8,3,6.9,6.8,7  c0.2,0,0.4-0.1,0.4-0.3C56.2,32.2,56.1,32.1,55.9,32.1L55.9,32.1z" />
    <path
        d="M49.4,65.8c-3.5-0.1-6.3-3-6.3-6.5c0,0,0-0.1-0.1-0.1c0,0-0.1-0.1-0.1-0.1c0,0-0.1,0-0.1,0.1c0,0-0.1,0.1-0.1,0.1  c0,3.5-2.8,6.4-6.3,6.5c-0.1,0-0.2,0.1-0.2,0.2c0,0.1,0.1,0.2,0.2,0.2C40.1,66,43,63,43,59.3c0,0,0-0.1-0.1-0.1c0,0-0.1-0.1-0.1-0.1  c0,0-0.1,0-0.1,0.1c0,0-0.1,0.1-0.1,0.1c0,3.7,3,6.7,6.7,6.9c0.1,0,0.2-0.1,0.2-0.2C49.6,65.9,49.5,65.8,49.4,65.8L49.4,65.8z" />
    <path
        d="M62.4,65.8c-3.5-0.1-6.3-3-6.3-6.5c0,0,0-0.1-0.1-0.1c0,0-0.1-0.1-0.1-0.1c0,0-0.1,0-0.1,0.1c0,0-0.1,0.1-0.1,0.1  c0,3.5-2.8,6.4-6.3,6.5c-0.1,0-0.2,0.1-0.2,0.2c0,0.1,0.1,0.2,0.2,0.2c3.7-0.1,6.7-3.1,6.7-6.9c0,0,0-0.1-0.1-0.1  c0,0-0.1-0.1-0.1-0.1c0,0-0.1,0-0.1,0.1c0,0-0.1,0.1-0.1,0.1c0,3.7,3,6.7,6.7,6.9c0.1,0,0.2-0.1,0.2-0.2  C62.6,65.9,62.5,65.8,62.4,65.8L62.4,65.8z" />
    <path
        d="M68.5,59.3c0,3.4-2.7,6.2-6.2,6.3c-0.2,0-0.3,0.2-0.3,0.4c0,0.2,0.2,0.3,0.4,0.3c3.8-0.1,6.8-3.2,6.8-7  c0-0.2-0.2-0.3-0.3-0.3C68.7,58.9,68.5,59.1,68.5,59.3L68.5,59.3z" />
    <path
        d="M36.4,65.6c-3.4-0.1-6.2-2.9-6.2-6.3c0-0.2-0.2-0.3-0.3-0.3c-0.2,0-0.3,0.2-0.3,0.3c0,3.8,3,6.9,6.8,7  c0.2,0,0.4-0.1,0.4-0.3C36.7,65.8,36.6,65.6,36.4,65.6L36.4,65.6z" />
    <path
        d="M42.9,72.3c-3.4-0.1-6.2-2.9-6.2-6.3c0-0.2-0.2-0.3-0.3-0.3c-0.2,0-0.3,0.2-0.3,0.3c0,3.8,3,6.9,6.8,7  c0.2,0,0.4-0.1,0.4-0.3C43.2,72.4,43.1,72.3,42.9,72.3L42.9,72.3z" />
    <path
        d="M55.9,72.3c-3.4-0.1-6.2-2.9-6.2-6.3c0-0.1,0-0.2-0.1-0.2c-0.1-0.1-0.2-0.1-0.2-0.1c-0.1,0-0.2,0-0.2,0.1  c-0.1,0.1-0.1,0.2-0.1,0.2c0,3.4-2.7,6.2-6.2,6.3c-0.2,0-0.3,0.2-0.3,0.4c0,0.2,0.2,0.3,0.4,0.3c3.8-0.1,6.8-3.2,6.8-7  c0-0.1,0-0.2-0.1-0.2c-0.1-0.1-0.2-0.1-0.2-0.1c-0.1,0-0.2,0-0.2,0.1c-0.1,0.1-0.1,0.2-0.1,0.2c0,3.8,3,6.9,6.8,7  c0.2,0,0.4-0.1,0.4-0.3C56.2,72.4,56.1,72.3,55.9,72.3L55.9,72.3z" />
    <path
        d="M62,65.9c0,3.4-2.7,6.2-6.2,6.3c-0.2,0-0.3,0.2-0.3,0.4c0,0.2,0.2,0.3,0.4,0.3c3.8-0.1,6.8-3.2,6.8-7c0-0.2-0.2-0.3-0.3-0.3  C62.2,65.6,62,65.8,62,65.9L62,65.9z" />
    <path
        d="M49.4,79c-3.4-0.1-6.2-2.9-6.2-6.3c0-0.2-0.2-0.3-0.3-0.3c-0.2,0-0.3,0.2-0.3,0.3c0,3.8,3,6.9,6.8,7c0.2,0,0.4-0.1,0.4-0.3  C49.7,79.1,49.6,79,49.4,79L49.4,79z" />
    <path
        d="M55.5,72.6c0,3.4-2.7,6.2-6.2,6.3c-0.2,0-0.3,0.2-0.3,0.4c0,0.2,0.2,0.3,0.4,0.3c3.8-0.1,6.8-3.2,6.8-7  c0-0.2-0.2-0.3-0.3-0.3C55.7,72.3,55.5,72.4,55.5,72.6L55.5,72.6z" />
    <path
        d="M29.9,58.9c-3.4-0.1-6.2-2.9-6.2-6.3c0-0.2-0.2-0.3-0.3-0.3c-0.2,0-0.3,0.2-0.3,0.3c0,3.8,3,6.9,6.8,7  c0.2,0,0.4-0.1,0.4-0.3C30.2,59.1,30.1,58.9,29.9,58.9L29.9,58.9z" />
    <path
        d="M75,52.6c0,3.4-2.7,6.2-6.2,6.3c-0.2,0-0.3,0.2-0.3,0.4c0,0.2,0.2,0.3,0.4,0.3c3.8-0.1,6.8-3.2,6.8-7c0-0.2-0.2-0.3-0.3-0.3  C75.2,52.2,75,52.4,75,52.6L75,52.6z" />
    <path
        d="M36.4,52.2c-3.4-0.1-6.2-2.9-6.2-6.3c0-0.1,0-0.2-0.1-0.2s-0.2-0.1-0.2-0.1c-0.1,0-0.2,0-0.2,0.1s-0.1,0.2-0.1,0.2  c0,3.4-2.7,6.2-6.2,6.3c-0.2,0-0.3,0.2-0.3,0.4c0,0.2,0.2,0.3,0.4,0.3c3.8-0.1,6.8-3.2,6.8-7c0-0.1,0-0.2-0.1-0.2s-0.2-0.1-0.2-0.1  c-0.1,0-0.2,0-0.2,0.1s-0.1,0.2-0.1,0.2c0,3.8,3,6.9,6.8,7c0.2,0,0.4-0.1,0.4-0.3C36.7,52.4,36.6,52.2,36.4,52.2L36.4,52.2z" />
    <path
        d="M75.4,52.2c-3.4-0.1-6.2-2.9-6.2-6.3c0-0.1,0-0.2-0.1-0.2c-0.1-0.1-0.2-0.1-0.2-0.1c-0.1,0-0.2,0-0.2,0.1s-0.1,0.2-0.1,0.2  c0,3.4-2.7,6.2-6.2,6.3c-0.2,0-0.3,0.2-0.3,0.4c0,0.2,0.2,0.3,0.4,0.3c3.8-0.1,6.8-3.2,6.8-7c0-0.1,0-0.2-0.1-0.2  c-0.1-0.1-0.2-0.1-0.2-0.1c-0.1,0-0.2,0-0.2,0.1s-0.1,0.2-0.1,0.2c0,3.8,3,6.9,6.8,7c0.2,0,0.4-0.1,0.4-0.3  C75.7,52.4,75.6,52.2,75.4,52.2L75.4,52.2z" />
</svg>