<svg id="waves" viewBox="0 0 540 960" preserveAspectRatio="none" xmlns="http://www.w3.org/2000/svg">
    <path id="path-1"
        d="M0 251L30 263.7C60 276.3 120 301.7 180 290.3C240 279 300 231 360 216.7C420 202.3 480 221.7 510 231.3L540 241L540 0L510 0C480 0 420 0 360 0C300 0 240 0 180 0C120 0 60 0 30 0L0 0Z"
        fill="#ff6161"></path>
    <path id="path-2"
        d="M0 423L30 429.5C60 436 120 449 180 436.3C240 423.7 300 385.3 360 369.3C420 353.3 480 359.7 510 362.8L540 366L540 239L510 229.3C480 219.7 420 200.3 360 214.7C300 229 240 277 180 288.3C120 299.7 60 274.3 30 261.7L0 249Z"
        fill="#ffb443"></path>
    <path id="path-3"
        d="M0 519L30 528.7C60 538.3 120 557.7 180 543.3C240 529 300 481 360 468.2C420 455.3 480 477.7 510 488.8L540 500L540 364L510 360.8C480 357.7 420 351.3 360 367.3C300 383.3 240 421.7 180 434.3C120 447 60 434 30 427.5L0 421Z"
        fill="#e4e26b"></path>
    <path id="path-4"
        d="M0 606L30 614C60 622 120 638 180 620.3C240 602.7 300 551.3 360 544.8C420 538.3 480 576.7 510 595.8L540 615L540 498L510 486.8C480 475.7 420 453.3 360 466.2C300 479 240 527 180 541.3C120 555.7 60 536.3 30 526.7L0 517Z"
        fill="#c0e46b"></path>
    <path id="path-5"
        d="M0 894L30 890.8C60 887.7 120 881.3 180 870.2C240 859 300 843 360 838.2C420 833.3 480 839.7 510 842.8L540 846L540 613L510 593.8C480 574.7 420 536.3 360 542.8C300 549.3 240 600.7 180 618.3C120 636 60 620 30 612L0 604Z"
        fill="#739ddb"></path>
    <path id="path-6"
        d="M0 961L30 961C60 961 120 961 180 961C240 961 300 961 360 961C420 961 480 961 510 961L540 961L540 844L510 840.8C480 837.7 420 831.3 360 836.2C300 841 240 857 180 868.2C120 879.3 60 885.7 30 888.8L0 892Z"
        fill="#9954c2"></path>
</svg>