<svg id="visual" viewBox="0 0 540 960" width="540" height="960" xmlns="http://www.w3.org/2000/svg"
    xmlns:xlink="http://www.w3.org/1999/xlink" version="1.1">
    <path
        d="M0 68L22.5 76C45 84 90 100 135 104.8C180 109.7 225 103.3 270 101.8C315 100.3 360 103.7 405 106.8C450 110 495 113 517.5 114.5L540 116L540 0L517.5 0C495 0 450 0 405 0C360 0 315 0 270 0C225 0 180 0 135 0C90 0 45 0 22.5 0L0 0Z"
        fill="#ff6161"></path>
    <path
        d="M0 164L22.5 175.2C45 186.3 90 208.7 135 215.2C180 221.7 225 212.3 270 209.2C315 206 360 209 405 207.3C450 205.7 495 199.3 517.5 196.2L540 193L540 114L517.5 112.5C495 111 450 108 405 104.8C360 101.7 315 98.3 270 99.8C225 101.3 180 107.7 135 102.8C90 98 45 82 22.5 74L0 66Z"
        fill="#ffb443"></path>
    <path
        d="M0 318L22.5 322.8C45 327.7 90 337.3 135 342.2C180 347 225 347 270 339C315 331 360 315 405 307C450 299 495 299 517.5 299L540 299L540 191L517.5 194.2C495 197.3 450 203.7 405 205.3C360 207 315 204 270 207.2C225 210.3 180 219.7 135 213.2C90 206.7 45 184.3 22.5 173.2L0 162Z"
        fill="#e4e26b"></path>
    <path
        d="M0 548L22.5 554.5C45 561 90 574 135 572.5C180 571 225 555 270 547C315 539 360 539 405 532.5C450 526 495 513 517.5 506.5L540 500L540 297L517.5 297C495 297 450 297 405 305C360 313 315 329 270 337C225 345 180 345 135 340.2C90 335.3 45 325.7 22.5 320.8L0 316Z"
        fill="#c0e46b"></path>
    <path
        d="M0 654L22.5 660.3C45 666.7 90 679.3 135 687.3C180 695.3 225 698.7 270 706.7C315 714.7 360 727.3 405 727.3C450 727.3 495 714.7 517.5 708.3L540 702L540 498L517.5 504.5C495 511 450 524 405 530.5C360 537 315 537 270 545C225 553 180 569 135 570.5C90 572 45 559 22.5 552.5L0 546Z"
        fill="#739ddb"></path>
    <path
        d="M0 961L22.5 961C45 961 90 961 135 961C180 961 225 961 270 961C315 961 360 961 405 961C450 961 495 961 517.5 961L540 961L540 700L517.5 706.3C495 712.7 450 725.3 405 725.3C360 725.3 315 712.7 270 704.7C225 696.7 180 693.3 135 685.3C90 677.3 45 664.7 22.5 658.3L0 652Z"
        fill="#9954c2"></path>
</svg>