<svg viewBox="0 0 512 640" x="0px" y="0px">
    <path d="M256,496c97.047,0,176-68.187,176-152,0-27.893-8.754-54.051-24-76.545V200a104.124,104.124,0,0,0-32.1-75.128A56.118,56.118,0,0,0,344,77.4V56a40.045,40.045,0,0,0-40-40H176a40.045,40.045,0,0,0-40,40v63.458a32.167,32.167,0,0,0,.415,5.109A103.951,103.951,0,0,0,104,200v67.455C88.754,289.949,80,316.107,80,344,80,427.813,158.953,496,256,496ZM96,344c0-41.97,22.487-79.557,57.753-104.523a70.147,70.147,0,0,0,18.731,14.388C150.706,278.735,128,316.912,128,368a202.21,202.21,0,0,0,12.093,69.658C112.784,413.252,96,380.261,96,344ZM345.98,456.4A178.35,178.35,0,0,1,264,479.83V463.507c2.641-.265,5.817-.67,9.386-1.3A8,8,0,0,0,280,454.33V432h16v11.66a8,8,0,0,0,11.743,7.07c25.64-13.576,40.927-36.345,44.208-65.846A8,8,0,0,0,344,376H264V271.856c22.519-.757,43.287-4.693,60.246-11.052C345.016,283.334,368,319.273,368,368A184.346,184.346,0,0,1,345.98,456.4Zm-179.96,0A184.346,184.346,0,0,1,144,368c0-48.727,22.984-84.666,43.754-107.2,16.958,6.359,37.727,10.3,60.246,11.052V376h-8a8,8,0,0,0-8,8v16H216V384a8,8,0,0,0-8-8H168a8,8,0,0,0-7.951,8.883c3.608,32.471,21.52,56.493,51.8,69.47A125.539,125.539,0,0,0,248,463.511V479.83A178.35,178.35,0,0,1,166.02,456.4ZM304,416H272a8,8,0,0,0-8,8v23.416c-4.893.564-7.967.584-8,.584a108,108,0,0,1-37.849-8.353c-22.163-9.5-35.835-25.5-40.739-47.647H200v16a8,8,0,0,0,8,8h32a8,8,0,0,0,8-8V392h86.584C331.2,407.241,323.637,419.6,312,428.927V424A8,8,0,0,0,304,416ZM256,256c-42.722,0-74.732-11.9-88.471-25.26C192.887,216.382,223.312,208,256,208s63.113,8.382,88.471,22.74C330.732,244.1,298.721,256,256,256ZM371.907,437.658A202.21,202.21,0,0,0,384,368c0-51.088-22.706-89.265-44.484-114.135a70.147,70.147,0,0,0,18.731-14.388C393.513,264.443,416,302.03,416,344,416,380.261,399.216,413.252,371.907,437.658ZM334.155,142.837A32.973,32.973,0,0,0,344,119.458V96a40.09,40.09,0,0,1,16,32v16a24.027,24.027,0,0,1-24,24H304a24.035,24.035,0,0,1-23.736-20.453,32.223,32.223,0,0,0,7.767-6.438A31.95,31.95,0,0,0,311.4,151.994,31.468,31.468,0,0,0,334.155,142.837ZM152,56a24.027,24.027,0,0,1,24-24H304a24.027,24.027,0,0,1,24,24v63.458a16.876,16.876,0,0,1-5.054,11.961A15.6,15.6,0,0,1,311.7,136,16.075,16.075,0,0,1,296,120V88a8,8,0,0,0-16,0v32a16,16,0,0,1-32,0V88a8,8,0,0,0-16,0v32a16,16,0,0,1-32,0V88a8,8,0,0,0-16,0v32a16.075,16.075,0,0,1-15.7,16,15.633,15.633,0,0,1-11.25-4.578A16.876,16.876,0,0,1,152,119.458ZM120,200a87.949,87.949,0,0,1,23.446-59.8,32.826,32.826,0,0,0,2.4,2.637,31.414,31.414,0,0,0,22.755,9.157,31.95,31.95,0,0,0,23.369-10.885,31.957,31.957,0,0,0,48.031.035A31.933,31.933,0,0,0,264,152c.269,0,.534-.015.8-.022A40.067,40.067,0,0,0,304,184h32a40.05,40.05,0,0,0,39.679-35.024A88.08,88.08,0,0,1,392,200v47.627C359.7,213.686,310.726,192,256,192s-103.695,21.686-136,55.627Z"/>
    <path d="M176,344h48a8,8,0,0,0,6.86-12.116l-24-40a8,8,0,0,0-13.72,0l-24,40A8,8,0,0,0,176,344Zm24-32.451L209.871,328H190.129Z"/>
    <path d="M318.86,291.884a8,8,0,0,0-13.72,0l-24,40A8,8,0,0,0,288,344h48a8,8,0,0,0,6.86-12.116ZM302.129,328,312,311.549,321.871,328Z"/>
</svg>